<?xml version="1.0" encoding="UTF-8"?>
<svg id="_圖層_1" data-name="圖層 1" xmlns="http://www.w3.org/2000/svg" viewBox="0 0 313.47 287.95">
  <defs>
    <style>
      .cls-1 {
        fill: #46619a;
      }

      .cls-1, .cls-2 {
        stroke-width: 0px;
      }

      .cls-2 {
        fill: #fff;
      }
    </style>
  </defs>
  <path class="cls-1" d="M161.01,24.22c-35.98,0-70.02,11.61-95.84,32.68-11.73,9.57-21.25,20.62-28.3,32.85-6.17,10.7-10.34,22.1-12.42,33.96H5.89c-3.25,0-5.89,2.64-5.89,5.89v28.8c0,3.25,2.64,5.89,5.89,5.89h19.62c5.41,23.55,19.05,44.75,39.66,61.57,19.32,15.77,43.21,26.27,69.36,30.54l.04,20.83c.01,5.92,4.85,10.73,10.78,10.73,2.83,0,5.51-1.12,7.54-3.14l50.77-50.77c2.03-2.03,3.14-4.72,3.14-7.59,0-2.86-1.12-5.55-3.15-7.58l-50.95-50.95c-2.04-2.04-4.72-3.16-7.56-3.16-2.85,0-5.64,1.15-7.65,3.17-2,2.01-3.1,4.69-3.1,7.57l.06,31.51c-14.62-3.5-27.87-9.89-38.65-18.68-8.56-6.99-15.11-15.19-19.26-24.05h44.55c3.25,0,5.89-2.64,5.89-5.89v-28.8c0-3.25-2.64-5.89-5.89-5.89h-46.7c3.81-10.87,11.11-20.88,21.4-29.28,17.2-14.04,40.36-21.77,65.22-21.77,3.25,0,5.89-2.64,5.89-5.89V30.11c0-3.25-2.64-5.89-5.89-5.89h0Z"/>
  <path class="cls-2" d="M5.89,158.39h24.42c4.29,23.89,17.62,45.79,38.58,62.9,19.79,16.15,44.66,26.5,71.52,30.01l.05,25.9c0,4.31,5.22,6.47,8.26,3.43l50.77-50.77c1.88-1.88,1.88-4.95-.01-6.84l-50.95-50.95c-3.05-3.05-8.25-.9-8.25,3.4l.07,38.74c-18.25-3.14-34.93-10.45-48.28-21.34-11.99-9.79-20.22-21.67-24.09-34.5h53.1v-28.8h-54.43c3.04-14.82,11.8-28.63,25.41-39.74,18.25-14.89,42.73-23.09,68.94-23.09V30.11c-34.63,0-67.34,11.13-92.12,31.35-22.49,18.35-36.18,42.21-39.37,68.13H5.89v28.8Z"/>
  <path class="cls-2" d="M307.58,129.56v28.8h-23.63c-3.19,25.92-16.88,49.78-39.37,68.13-17.39,14.19-38.69,23.9-61.81,28.43l20.89-20.89c2.03-2.02,3.14-4.72,3.14-7.59,0-2.86-1.13-5.55-3.15-7.57l-6.4-6.4c8.84-3.69,16.98-8.52,24.16-14.38,13.61-11.11,22.37-24.91,25.41-39.74h-54.43v-28.8h53.1c-3.87-12.83-12.09-24.71-24.09-34.5-13.35-10.9-30.03-18.2-48.28-21.34l.07,38.74c0,1.55-.67,2.82-1.67,3.67-.12.1-.24.2-.37.28-.19.14-.39.26-.6.35-.14.07-.27.13-.42.19-.21.09-.43.16-.65.21-.15.04-.3.07-.45.09-.23.03-.46.05-.69.05-1.19,0-2.41-.45-3.4-1.43l-38.03-38.03-12.91-12.91c-1.89-1.89-1.9-4.95-.01-6.83L164.75,7.31c.24-.24.5-.45.77-.63.41-.27.83-.46,1.27-.6.44-.12.88-.19,1.33-.19.31,0,.62.03.92.09.46.09.9.24,1.31.45,0,0,0,0,0,0,.27.14.54.3.78.49.12.1.24.2.35.3.26.24.48.5.67.79.07.1.14.21.2.31.04.07.08.14.12.22.06.12.12.24.17.37.01.04.03.09.05.13.14.37.23.75.27,1.17.02.18.03.35.03.54l.05,25.91c26.86,3.51,51.73,13.86,71.52,30.01,20.96,17.11,34.29,39,38.58,62.9h24.42Z"/>
  <path class="cls-1" d="M307.58,123.67h-19.62c-5.41-23.55-19.05-44.75-39.66-61.57-19.32-15.77-43.21-26.27-69.36-30.54l-.04-20.83c0-5.92-4.84-10.73-10.77-10.73-2.83,0-5.51,1.12-7.54,3.15l-50.76,50.76c-2.03,2.03-3.14,4.73-3.14,7.59,0,2.86,1.13,5.55,3.15,7.58l50.95,50.95c2.04,2.04,4.72,3.15,7.56,3.15s5.64-1.15,7.64-3.17c2-2.01,3.1-4.69,3.1-7.57l-.05-31.51c14.62,3.5,27.87,9.89,38.65,18.69,8.56,6.98,15.11,15.19,19.26,24.05h-44.55c-3.25,0-5.89,2.64-5.89,5.89v28.8c0,3.25,2.64,5.89,5.89,5.89h46.7c-3.82,10.86-11.11,20.89-21.41,29.28-7.34,6-15.78,10.84-24.96,14.42l4.52,4.52c8.84-3.69,16.98-8.52,24.16-14.38,13.61-11.11,22.37-24.91,25.41-39.74h-54.43v-28.8h53.1c-3.87-12.83-12.09-24.71-24.09-34.5-13.35-10.9-30.03-18.2-48.28-21.34l.07,38.74c0,1.55-.67,2.82-1.67,3.67-.12.1-.24.2-.37.28-.19.14-.39.26-.6.35-.14.07-.27.14-.42.19-.21.09-.43.16-.65.21-.15.04-.3.07-.45.09-.23.03-.46.05-.69.05-1.19,0-2.41-.45-3.4-1.43l-38.03-38.03-12.91-12.91c-1.89-1.89-1.9-4.95-.01-6.83L164.75,7.31c.24-.24.5-.45.77-.63.41-.27.83-.46,1.27-.6.44-.12.88-.19,1.33-.19.31,0,.62.03.92.09.45.09.9.24,1.31.45,0,0,0,0,0,0,.27.14.54.3.78.49.12.1.24.2.35.3.26.24.48.5.67.79.07.1.14.2.2.31.04.07.08.14.12.22.06.12.12.24.17.37.01.04.03.09.05.13.14.36.23.75.27,1.17.02.18.03.35.03.54l.05,25.91c26.86,3.51,51.73,13.86,71.52,30.01,20.96,17.11,34.29,39,38.58,62.9h24.42v28.8h-23.63c-3.19,25.92-16.88,49.78-39.37,68.13-17.39,14.19-38.69,23.9-61.81,28.43l-7.19,7.19c27.27-3.87,52.51-14.56,72.72-31.06,11.73-9.57,21.25-20.62,28.3-32.84,6.17-10.71,10.34-22.11,12.42-33.96h18.56c3.25,0,5.89-2.64,5.89-5.89v-28.8c0-3.25-2.64-5.89-5.89-5.89Z"/>
</svg>